<svg xmlns="http://www.w3.org/2000/svg" xmlns:xlink="http://www.w3.org/1999/xlink" width="256" height="256" viewBox="0 0 256 256">
  <defs>
    <clipPath id="clip-path">
      <rect id="사각형_11" data-name="사각형 11" width="256" height="134.245" fill="#0f2a55"/>
    </clipPath>
  </defs>
  <g id="그룹_5" data-name="그룹 5" transform="translate(-1002 -1771)">
    <rect id="사각형_46" data-name="사각형 46" width="256" height="256" transform="translate(1002 1771)" fill="none"/>
    <g id="그룹_1" data-name="그룹 1" transform="translate(1002 1821.711)" clip-path="url(#clip-path)">
      <path id="패스_1" data-name="패스 1" d="M367.88,190.1c-5.954,0-11.662-.065-17.367.036-1.947.035-2.545-.671-2.48-2.547.115-3.316.124-6.642,0-9.957-.073-1.9.718-2.525,2.459-2.36.329.031.663,0,1,0H461.837c3.508,0,3.509,0,3.511,3.523q0,3.784,0,7.569c0,3.731,0,3.732-3.631,3.732H446.691c1.477,1.128,2.541,1.87,3.527,2.705,5.481,4.642,9.36,10.118,9.222,17.7-.114,6.283-3.082,11.192-7.536,15.259-7.714,7.043-17.147,10.486-27.229,12.267-15,2.649-29.882,2.232-44.449-2.559-7.861-2.586-15.074-6.358-20.295-13.072-6.6-8.491-5.977-18.859,1.588-26.55,1.936-1.969,4.1-3.718,6.361-5.755m39.671,33.481c2.975-.215,5.967-.3,8.921-.688a29.29,29.29,0,0,0,7.17-1.586,40.884,40.884,0,0,0,9.652-4.943c5.569-4.28,5.409-11.259-.055-15.7a20.755,20.755,0,0,0-5.6-3.361c-12.425-4.682-25.038-4.65-37.7-1.029a20.328,20.328,0,0,0-9.646,5.726c-3.564,3.892-3.695,9.386.035,13.1a23.961,23.961,0,0,0,6.618,4.633c6.5,3.04,13.5,3.733,20.609,3.848" transform="translate(-209.349 -105.42)" fill="#0f2a55"/>
      <path id="패스_3" data-name="패스 3" d="M370.815,26.473c-3.941,0-7.5,0-11.053,0-3.442,0-3.445,0-3.449-3.386,0-2.988.074-5.978-.024-8.963-.063-1.911.691-2.531,2.574-2.523,13.28.057,26.56.031,39.84.028,2.937,0,2.938,0,2.942-2.967,0-2.258.043-4.516-.008-6.773-.031-1.354.506-1.9,1.878-1.889q8.963.059,17.928,0c1.293-.008,1.8.553,1.793,1.784-.014,2.457.1,4.919-.024,7.369-.1,1.919.608,2.518,2.514,2.509,13.28-.065,26.56-.035,39.84-.032,3.042,0,3.093.056,3.1,3.135q.01,4.382,0,8.765c-.006,2.935-.01,2.937-3.038,2.941-3.32,0-6.64,0-9.96.008-.378,0-.755.082-1.484.167.57.775.978,1.34,1.394,1.9,5.747,7.695,5.22,16.717-1.312,23.788-5.077,5.5-11.5,8.69-18.482,10.9a75.581,75.581,0,0,1-20.176,3.215c-10.74.389-21.2-.851-31.2-4.912-5.779-2.347-11.072-5.5-14.954-10.563-5.465-7.134-5.54-14.969-.264-22.267.452-.625.908-1.247,1.624-2.229M412.547,52.6c3.484-.392,6.993-.636,10.446-1.215a24.44,24.44,0,0,0,11.466-4.753c5.071-4.044,5.264-10.194.243-14.289a20.349,20.349,0,0,0-6.4-3.508,50.213,50.213,0,0,0-31.486-.087,21.859,21.859,0,0,0-7.563,4.563A7.911,7.911,0,0,0,389,45.18a20.523,20.523,0,0,0,5.838,4.02c5.577,2.611,11.587,3.2,17.709,3.4" transform="translate(-214.318 0)" fill="#0f2a55"/>
      <path id="패스_5" data-name="패스 5" d="M84.575,87.23c-2.744,3.217-5.437,6.132-7.834,9.274-1.454,1.906-2.781,2.075-4.863,1.108C60.213,92.189,50.83,84.345,44.911,72.721c-.14-.275-.321-.529-.65-1.065C41.866,76.473,38.4,80.113,34.67,83.5A77.568,77.568,0,0,1,12.285,97.781c-1.931.805-3.1.5-4.389-1.143-2.444-3.119-5.115-6.06-7.9-9.315.823-.451,1.44-.76,2.029-1.116,4.987-3.012,10.255-5.653,14.891-9.134C25.637,70.528,29.955,61.219,31.905,50.7c.266-1.434.387-2.9.687-4.322.35-1.662-.192-2.26-1.923-2.247-8.033.062-16.067.034-24.1.024-4.017-.005-3.721.348-3.73-3.8-.006-2.988.058-5.977-.022-8.963-.043-1.576.61-2.194,2.117-2.086.4.028.8,0,1.195,0q38.144,0,76.288,0c3.437,0,3.438.005,3.441,3.393,0,2.988-.085,5.979.031,8.962.073,1.888-.563,2.549-2.5,2.529-8.431-.085-16.864-.024-25.3-.048-1.285,0-2.275.125-2.072,1.8,1,8.214,2.549,16.255,6.8,23.537,4.138,7.08,10.3,11.861,17.432,15.564,1.342.7,2.7,1.368,4.318,2.189" transform="translate(0 -17.621)" fill="#0f2a55"/>
      <path id="패스_8" data-name="패스 8" d="M91.137,258.6q-22.8,0-45.6,0c-4.539,0-6.528-2-6.531-6.56-.007-10.421.037-20.841-.038-31.261-.014-1.906.589-2.567,2.5-2.535,5.508.091,11.018.022,16.526.036,2.431.007,2.625.195,2.63,2.6.015,6.836,0,13.673.009,20.509,0,2.657.016,2.67,2.649,2.67q36.837,0,73.673,0c2.954,0,2.959.006,2.965,2.995s-.092,5.978.033,8.959c.084,1.99-.6,2.635-2.623,2.625-15.4-.072-30.8-.039-46.195-.039" transform="translate(-23.442 -131.277)" fill="#0f2a55"/>
      <path id="패스_9" data-name="패스 9" d="M238.066,65.72q0-19.01,0-38.021c0-2.641.027-2.662,2.667-2.666q7.962-.011,15.925,0c2.989,0,3,.005,3,2.957q.005,30.854,0,61.71c0,4.844-.049,9.689.023,14.531.026,1.714-.574,2.339-2.316,2.313-5.573-.081-11.149-.1-16.72.009-2,.041-2.634-.6-2.622-2.611.076-12.74.039-25.48.039-38.22" transform="translate(-143.182 -15.055)" fill="#0f2a55"/>
    </g>
  </g>
</svg>
