<svg width="171" height="45" viewBox="0 0 171 45" fill="none" xmlns="http://www.w3.org/2000/svg">
<path d="M19.6745 21.136C12.3333 1.89064 5.15066 17.9253 4.62829 21.3413V20.968C-3.36592 43.3213 8.12633 40.092 8.12633 40.092H16.9321C18.8723 40.092 20.3089 39.7186 21.3723 39.0933C20.2156 36.172 20.001 31.02 19.6932 22.172C19.6839 21.808 19.6839 21.472 19.6745 21.1266V21.136Z" fill="#35763C"/>
<path d="M34.6368 28.2481C34.6088 23.0961 37.2487 19.1854 41.0918 17.4121C40.1963 10.7014 37.6311 5.93207 30.4485 5.61473C30.4485 5.61473 19.5159 4.1494 19.6838 21.1361C19.8704 21.6121 20.0476 22.0881 20.2342 22.6107C20.2342 22.6107 27.678 35.4067 21.3815 39.0934C22.5942 42.1454 24.8329 42.7521 29.3198 42.5561C35.1312 42.3041 38.5826 42.0614 40.271 38.3281C36.9128 36.2281 34.6741 32.5041 34.6461 28.2387L34.6368 28.2481Z" fill="#A4BC49"/>
<path d="M20.2249 22.6104C20.0384 22.0877 19.8611 21.6117 19.6746 21.1357C19.6746 21.4811 19.6746 21.8171 19.6932 22.1811C20.001 31.0291 20.2156 36.1811 21.3723 39.1024C27.6688 35.4157 20.2249 22.6197 20.2249 22.6197V22.6104Z" fill="#25602E"/>
<path d="M53.5263 18.4941C51.614 17.2715 49.282 16.4875 46.5209 16.3661C44.562 16.2821 42.7243 16.6555 41.0919 17.4115C41.5677 20.9955 41.577 25.1395 41.549 29.4608C41.521 33.6328 41.1199 36.4421 40.2617 38.3368C42.0807 39.4755 44.2168 40.1381 46.5209 40.1381C48.8249 40.1381 50.0096 39.8955 51.6327 39.4195C48.2932 36.4515 49.7298 30.4688 53.5263 18.4941Z" fill="#68AC45"/>
<path d="M41.0826 17.4121C37.2394 19.1854 34.6089 23.0961 34.6275 28.2481C34.6462 32.5134 36.8943 36.2374 40.2524 38.3374C41.1106 36.4334 41.5117 33.6334 41.5397 29.4614C41.5677 25.1494 41.5583 21.0054 41.0826 17.4121Z" fill="#458C39"/>
<path d="M69.4029 9.75851C63.181 -6.01482 56.3902 9.54385 56.3249 9.75851C55.2988 12.9785 54.3566 15.8812 53.5264 18.4945C57.6121 21.1078 59.7203 25.7372 59.7203 30.2078C59.7203 34.6785 56.1383 38.1225 51.6328 39.4198C53.8249 41.3705 58.0785 42.0238 65.0933 42.2198C85.1021 42.7705 75.6341 25.5318 69.4029 9.75851Z" fill="#648943"/>
<path d="M59.711 30.2075C59.711 25.7368 57.6028 21.1075 53.5171 18.4941C49.7205 30.4688 48.284 36.4608 51.6235 39.4195C56.1196 38.1128 59.711 35.0235 59.711 30.2075Z" fill="#35763C"/>
<path d="M94.5887 19.2039L90.9414 14.3692L87.0889 19.5025L85.1953 18.0745L89.6635 12.1572V8.23721H92.2194V12.1572L96.4823 17.7759L94.5887 19.2039ZM104.197 25.1959C104.197 25.7372 104.103 26.2692 103.917 26.8012C103.73 27.3239 103.432 27.7999 103.021 28.2199C102.611 28.6399 102.079 28.9759 101.436 29.2465C100.792 29.5079 99.999 29.6385 99.0662 29.6385H94.1969C93.2641 29.6385 92.4806 29.5079 91.8276 29.2465C91.184 28.9852 90.6523 28.6399 90.2418 28.2199C89.8314 27.7999 89.5329 27.3239 89.3463 26.8012C89.1598 26.2785 89.0665 25.7372 89.0665 25.1959C89.0665 24.6545 89.1598 24.1225 89.3463 23.5905C89.5329 23.0679 89.8314 22.5919 90.2418 22.1719C90.6523 21.7519 91.184 21.4159 91.8276 21.1452C92.4713 20.8839 93.2641 20.7532 94.1969 20.7532H99.0662C99.999 20.7532 100.783 20.8839 101.436 21.1452C102.079 21.4065 102.611 21.7519 103.021 22.1719C103.432 22.5919 103.73 23.0679 103.917 23.5905C104.103 24.1132 104.197 24.6545 104.197 25.1959ZM101.594 25.1959C101.594 24.5052 101.389 23.9732 100.979 23.5905C100.568 23.2172 99.9897 23.0212 99.2528 23.0212H94.0011C93.2548 23.0212 92.6858 23.2079 92.2754 23.5905C91.8649 23.9732 91.6597 24.5052 91.6597 25.1959C91.6597 25.8865 91.8649 26.4185 92.2754 26.8012C92.6858 27.1839 93.2641 27.3705 94.0011 27.3705H99.2528C99.9897 27.3705 100.568 27.1839 100.979 26.8012C101.389 26.4279 101.594 25.8865 101.594 25.1959ZM97.4058 19.9972C97.2752 20.0439 97.1633 20.0345 97.0607 19.9692C96.9581 19.9039 96.9114 19.8012 96.9114 19.6705V7.85454H99.4207V12.1665H101.454V7.60254H103.964V19.7825L101.949 20.4732C101.818 20.5199 101.706 20.5105 101.603 20.4452C101.501 20.3799 101.454 20.2772 101.454 20.1465V14.5279H99.4207V19.2879L97.4058 19.9785V19.9972Z" fill="#5E4523"/>
<path d="M108.003 18.8123V8.60164H118.553V10.2256H122.312V7.6123H124.868V19.6243L122.806 20.343C122.676 20.3896 122.564 20.3803 122.461 20.315C122.359 20.2496 122.312 20.147 122.312 20.0163V16.9363H118.553V18.8123H108.003ZM125.11 25.1216C125.11 25.663 125.017 26.2043 124.831 26.7363C124.644 27.2683 124.336 27.7536 123.916 28.1923C123.497 28.631 122.956 28.9763 122.293 29.2376C121.631 29.499 120.829 29.6296 119.877 29.6296H115.428C114.486 29.6296 113.674 29.499 113.012 29.2376C112.35 28.9763 111.809 28.6216 111.389 28.1923C110.969 27.7536 110.671 27.2683 110.475 26.7363C110.288 26.2043 110.195 25.663 110.195 25.1216C110.195 24.5803 110.288 24.039 110.475 23.507C110.661 22.975 110.969 22.4896 111.389 22.051C111.809 21.6123 112.35 21.267 113.012 21.0056C113.674 20.7443 114.476 20.6136 115.428 20.6136H119.877C120.82 20.6136 121.631 20.7443 122.293 21.0056C122.956 21.267 123.497 21.6216 123.916 22.051C124.336 22.4896 124.635 22.975 124.831 23.507C125.017 24.039 125.11 24.5803 125.11 25.1216ZM116.006 10.8696H110.568V16.5443H116.006V10.8696ZM122.508 25.1216C122.508 24.403 122.303 23.843 121.883 23.4603C121.463 23.0776 120.866 22.8816 120.101 22.8816H115.232C114.458 22.8816 113.861 23.0776 113.441 23.4603C113.021 23.843 112.816 24.403 112.816 25.1216C112.816 25.8403 113.021 26.4003 113.441 26.783C113.861 27.1656 114.458 27.3616 115.232 27.3616H120.101C120.876 27.3616 121.473 27.1656 121.883 26.783C122.303 26.4003 122.508 25.8403 122.508 25.1216ZM118.553 14.6216H122.312V12.5496H118.553V14.6216Z" fill="#5E4523"/>
<path d="M128.282 25.2243V22.9096H142.759V25.2243H128.282ZM141.295 14.3976C141.295 15.051 141.192 15.7043 140.987 16.3483C140.782 16.9923 140.455 17.571 140.007 18.0843C139.56 18.5976 138.972 19.0176 138.254 19.3443C137.535 19.6616 136.668 19.8296 135.661 19.8296H135.12C134.112 19.8296 133.245 19.671 132.526 19.3443C131.808 19.027 131.22 18.607 130.773 18.0843C130.325 17.571 129.989 16.983 129.774 16.3483C129.56 15.7043 129.457 15.0603 129.457 14.3976C129.457 13.735 129.56 13.091 129.774 12.447C129.989 11.803 130.316 11.2243 130.773 10.711C131.22 10.1976 131.808 9.77764 132.526 9.45097C133.245 9.13364 134.112 8.96564 135.12 8.96564H135.661C136.668 8.96564 137.535 9.12431 138.254 9.45097C138.972 9.76831 139.56 10.1883 140.007 10.711C140.455 11.2336 140.782 11.8123 140.987 12.447C141.192 13.091 141.295 13.735 141.295 14.3976ZM138.692 14.3976C138.692 13.3616 138.412 12.5776 137.843 12.0456C137.274 11.5136 136.519 11.243 135.577 11.243H135.222C134.28 11.243 133.515 11.5136 132.937 12.0456C132.358 12.5776 132.069 13.3616 132.069 14.3976C132.069 15.4336 132.358 16.2176 132.937 16.7496C133.515 17.2816 134.271 17.5523 135.222 17.5523H135.577C136.519 17.5523 137.284 17.2816 137.843 16.7496C138.412 16.2176 138.692 15.4336 138.692 14.3976ZM144.205 29.9563C144.075 30.003 143.963 29.9936 143.86 29.9283C143.757 29.863 143.711 29.7603 143.711 29.6296V7.6123H146.267V29.2376L144.205 29.9563Z" fill="#5E4523"/>
<path d="M160.912 19.6982V21.8449H167.367V24.1129H164.997V27.2489H167.647V29.5169H151.556V27.2489H154.205V24.1129H151.835V21.8449H158.29V19.6982H149.653V17.4302H169.531V19.6982H160.893H160.912ZM166.826 16.7395L159.606 12.0822L152.386 16.7395L150.968 14.8169L158.281 10.1315V7.74219H160.93V10.1315L168.244 14.8169L166.826 16.7395ZM156.77 27.2489H162.451V24.1129H156.77V27.2489Z" fill="#5E4523"/>
<path d="M89.8313 33.9412V36.3119H92.9936V37.1892H89.8313V40.1572L89.0011 40.4372C88.9545 40.4559 88.9078 40.4559 88.8612 40.4279C88.8239 40.3999 88.7959 40.3626 88.7959 40.3159V33.0732H93.0868V33.9506H89.8313V33.9412Z" fill="#5E4523"/>
<path d="M99.6352 37.7588C99.6352 38.1695 99.5606 38.5428 99.4113 38.8695C99.2621 39.1962 99.0569 39.4762 98.7957 39.7095C98.5345 39.9428 98.2267 40.1202 97.8722 40.2508C97.5177 40.3722 97.1353 40.4375 96.7248 40.4375C96.3144 40.4375 95.9319 40.3722 95.5775 40.2508C95.223 40.1295 94.9152 39.9428 94.654 39.7095C94.3928 39.4762 94.1876 39.1962 94.0383 38.8695C93.8891 38.5428 93.8145 38.1695 93.8145 37.7588V35.5468C93.8145 35.1362 93.8891 34.7722 94.0383 34.4455C94.1876 34.1188 94.3928 33.8295 94.654 33.5962C94.9152 33.3628 95.223 33.1855 95.5775 33.0548C95.9319 32.9335 96.3144 32.8682 96.7248 32.8682C97.1353 32.8682 97.5084 32.9335 97.8722 33.0548C98.2267 33.1762 98.5345 33.3628 98.7957 33.5962C99.0569 33.8295 99.2621 34.1188 99.4113 34.4455C99.5606 34.7722 99.6352 35.1455 99.6352 35.5468V37.7588ZM98.5998 35.7148C98.5998 35.0895 98.4412 34.6042 98.1241 34.2682C97.8069 33.9322 97.3405 33.7642 96.7248 33.7642C96.1092 33.7642 95.6428 33.9322 95.3256 34.2682C95.0085 34.6042 94.8499 35.0802 94.8499 35.7148V37.6002C94.8499 38.2255 95.0085 38.7108 95.3256 39.0468C95.6428 39.3828 96.1092 39.5508 96.7248 39.5508C97.3405 39.5508 97.8069 39.3828 98.1241 39.0468C98.4412 38.7108 98.5998 38.2348 98.5998 37.6002V35.7148Z" fill="#5E4523"/>
<path d="M105.279 40.2506L103.945 37.3666C103.898 37.3666 103.851 37.3759 103.814 37.3759H101.995V40.1572L101.165 40.4372C101.118 40.4559 101.072 40.4559 101.025 40.4279C100.988 40.3999 100.96 40.3626 100.96 40.3159V33.0732H103.674C104.019 33.0732 104.346 33.1106 104.644 33.1946C104.943 33.2786 105.204 33.3999 105.419 33.5679C105.633 33.7359 105.801 33.9599 105.922 34.2399C106.044 34.5106 106.1 34.8466 106.1 35.2292C106.1 35.6119 105.997 36.1719 105.782 36.4892C105.568 36.7972 105.279 37.0306 104.924 37.1799L106.389 40.2692H105.269L105.279 40.2506ZM105.064 35.2199C105.064 34.9586 105.017 34.7439 104.924 34.5852C104.831 34.4172 104.71 34.2866 104.56 34.1932C104.411 34.0999 104.225 34.0346 104.019 33.9972C103.814 33.9599 103.6 33.9412 103.366 33.9412H101.995V36.4986H103.366C103.6 36.4986 103.814 36.4799 104.019 36.4426C104.225 36.4052 104.402 36.3399 104.56 36.2466C104.71 36.1532 104.831 36.0226 104.924 35.8546C105.017 35.6866 105.064 35.4719 105.064 35.2199Z" fill="#5E4523"/>
<path d="M107.35 40.2511V33.0645H111.734V33.9418H108.376V36.1258H111.631V37.0031H108.376V39.3738H111.827V40.2511H107.35Z" fill="#5E4523"/>
<path d="M117.778 38.4495C117.778 38.8228 117.704 39.1308 117.564 39.3828C117.414 39.6348 117.228 39.8402 116.995 39.9988C116.762 40.1575 116.5 40.2695 116.202 40.3348C115.903 40.4002 115.605 40.4375 115.297 40.4375C114.989 40.4375 114.607 40.3908 114.299 40.2975C113.991 40.2042 113.721 40.0642 113.478 39.8868C113.235 39.7002 113.04 39.4762 112.881 39.2055C112.722 38.9348 112.629 38.6175 112.583 38.2535L113.609 38.1042C113.637 38.3095 113.693 38.5055 113.786 38.6828C113.879 38.8602 114 39.0188 114.15 39.1495C114.299 39.2802 114.467 39.3828 114.663 39.4482C114.859 39.5228 115.064 39.5508 115.297 39.5508C115.726 39.5508 116.071 39.4575 116.332 39.2615C116.594 39.0655 116.724 38.7762 116.724 38.4028C116.724 38.0295 116.622 37.7868 116.426 37.5908C116.23 37.3948 115.931 37.2362 115.53 37.1148L114.429 36.7788C114.196 36.7135 113.991 36.6202 113.795 36.5082C113.599 36.3962 113.431 36.2655 113.282 36.1068C113.142 35.9482 113.03 35.7615 112.946 35.5468C112.862 35.3322 112.825 35.0895 112.825 34.8095C112.825 34.5295 112.881 34.2215 112.993 33.9788C113.105 33.7362 113.263 33.5308 113.478 33.3722C113.683 33.2042 113.935 33.0828 114.224 32.9988C114.513 32.9148 114.831 32.8682 115.185 32.8682C115.54 32.8682 115.801 32.9148 116.071 32.9988C116.342 33.0828 116.584 33.2135 116.808 33.3722C117.023 33.5402 117.2 33.7362 117.349 33.9788C117.498 34.2215 117.592 34.4922 117.648 34.7908L116.622 34.9402C116.547 34.5668 116.398 34.2682 116.165 34.0628C115.931 33.8482 115.614 33.7455 115.222 33.7455C114.831 33.7455 114.448 33.8388 114.224 34.0348C114 34.2215 113.888 34.4735 113.888 34.7815C113.888 35.0895 113.982 35.3602 114.168 35.5562C114.355 35.7522 114.607 35.9015 114.933 36.0042L116.034 36.3402C116.622 36.5175 117.069 36.7695 117.359 37.1055C117.648 37.4322 117.797 37.8895 117.797 38.4588L117.778 38.4495Z" fill="#5E4523"/>
<path d="M121.491 33.9412V40.1572L120.661 40.4372C120.614 40.4559 120.568 40.4559 120.521 40.4279C120.484 40.3999 120.456 40.3626 120.456 40.3159V33.9506H118.208V33.0732H123.73V33.9506H121.482L121.491 33.9412Z" fill="#5E4523"/>
<path d="M127.722 33.9412V36.3119H130.884V37.1892H127.722V40.1572L126.892 40.4372C126.845 40.4559 126.799 40.4559 126.752 40.4279C126.715 40.3999 126.687 40.3626 126.687 40.3159V33.0732H130.978V33.9506H127.722V33.9412Z" fill="#5E4523"/>
<path d="M137.526 37.7588C137.526 38.1695 137.451 38.5428 137.302 38.8695C137.153 39.1962 136.948 39.4762 136.687 39.7095C136.425 39.9428 136.118 40.1202 135.763 40.2508C135.409 40.3722 135.026 40.4375 134.616 40.4375C134.205 40.4375 133.823 40.3722 133.468 40.2508C133.114 40.1295 132.806 39.9428 132.545 39.7095C132.284 39.4762 132.078 39.1962 131.929 38.8695C131.78 38.5428 131.705 38.1695 131.705 37.7588V35.5468C131.705 35.1362 131.78 34.7722 131.929 34.4455C132.078 34.1188 132.284 33.8295 132.545 33.5962C132.806 33.3628 133.114 33.1855 133.468 33.0548C133.823 32.9335 134.205 32.8682 134.616 32.8682C135.026 32.8682 135.399 32.9335 135.763 33.0548C136.118 33.1762 136.425 33.3628 136.687 33.5962C136.948 33.8295 137.153 34.1188 137.302 34.4455C137.451 34.7722 137.526 35.1455 137.526 35.5468V37.7588ZM136.491 35.7148C136.491 35.0895 136.332 34.6042 136.015 34.2682C135.698 33.9322 135.231 33.7642 134.616 33.7642C134 33.7642 133.534 33.9322 133.216 34.2682C132.899 34.6042 132.741 35.0802 132.741 35.7148V37.6002C132.741 38.2255 132.899 38.7108 133.216 39.0468C133.534 39.3828 134 39.5508 134.616 39.5508C135.231 39.5508 135.698 39.3828 136.015 39.0468C136.332 38.7108 136.491 38.2348 136.491 37.6002V35.7148Z" fill="#5E4523"/>
<path d="M143.17 40.2506L141.836 37.3666C141.789 37.3666 141.742 37.3759 141.705 37.3759H139.886V40.1572L139.056 40.4372C139.009 40.4559 138.963 40.4559 138.916 40.4279C138.879 40.3999 138.851 40.3626 138.851 40.3159V33.0732H141.565C141.91 33.0732 142.237 33.1106 142.535 33.1946C142.834 33.2786 143.095 33.3999 143.309 33.5679C143.524 33.7359 143.692 33.9599 143.813 34.2399C143.934 34.5106 143.99 34.8466 143.99 35.2292C143.99 35.6119 143.888 36.1719 143.673 36.4892C143.459 36.7972 143.17 37.0306 142.815 37.1799L144.28 40.2692H143.16L143.17 40.2506ZM142.955 35.2199C142.955 34.9586 142.908 34.7439 142.815 34.5852C142.722 34.4172 142.6 34.2866 142.451 34.1932C142.302 34.0999 142.115 34.0346 141.91 33.9972C141.705 33.9599 141.49 33.9412 141.257 33.9412H139.886V36.4986H141.257C141.49 36.4986 141.705 36.4799 141.91 36.4426C142.115 36.4052 142.293 36.3399 142.451 36.2466C142.61 36.1532 142.722 36.0226 142.815 35.8546C142.908 35.6866 142.955 35.4719 142.955 35.2199Z" fill="#5E4523"/>
<path d="M147.246 40.2511V33.0645H148.272V39.3738H151.723V40.2511H147.246Z" fill="#5E4523"/>
<path d="M152.964 40.4285C152.917 40.4471 152.871 40.4471 152.824 40.4191C152.787 40.3911 152.759 40.3538 152.759 40.3071V33.0645H153.785V40.1578L152.955 40.4378L152.964 40.4285Z" fill="#5E4523"/>
<path d="M156.443 33.9412V36.3119H159.606V37.1892H156.443V40.1572L155.613 40.4372C155.567 40.4559 155.52 40.4559 155.473 40.4279C155.436 40.3999 155.408 40.3626 155.408 40.3159V33.0732H159.699V33.9506H156.443V33.9412Z" fill="#5E4523"/>
<path d="M160.846 40.2511V33.0645H165.231V33.9418H161.873V36.1258H165.128V37.0031H161.873V39.3738H165.324V40.2511H160.846Z" fill="#5E4523"/>
</svg>
