<svg width="42" height="48" viewBox="0 0 42 48" fill="none" xmlns="http://www.w3.org/2000/svg">
<rect width="42" height="48" rx="10" fill="#57820D"/>
<path d="M29.5268 29.0575C30.4958 27.0345 32.7738 24.3145 31.2268 21.8495C30.2408 20.2855 18.1028 21.9005 17.2698 23.6515C14.8558 28.7345 25.2428 24.7565 27.0448 25.3175C28.9998 27.2215 19.4288 29.5505 18.1198 29.4995C14.0908 29.3635 12.7988 25.7085 14.7368 22.3425C15.6208 20.7955 23.0668 13.4855 24.5288 14.5395C24.9028 14.8115 24.9368 17.2085 26.4328 17.4465C31.0568 18.1605 28.3708 11.0205 25.0728 10.4425C20.9928 9.74548 12.4248 17.7865 10.7588 21.3055C7.23982 28.7515 13.0028 34.0555 20.5508 33.1715C22.1488 32.9845 23.6618 32.1005 25.0728 31.8285C25.3788 31.7605 25.7528 31.3865 25.7868 31.9645C25.9398 33.3925 25.5658 35.1775 25.7868 36.5375C26.1268 38.6795 29.1698 38.6965 29.5268 36.5375C29.8838 34.3445 29.2718 31.3695 29.5268 29.0575Z" fill="white"/>
</svg>
