<svg width="168" height="89" viewBox="0 0 168 89" fill="none" xmlns="http://www.w3.org/2000/svg">
<path d="M39.7211 40.9682C23.4073 -1.79923 7.44581 33.8334 6.28497 41.4245V40.5948C-11.4799 90.2689 14.0584 83.0926 14.0584 83.0926H33.6267C37.9384 83.0926 41.1307 82.263 43.4938 80.8734C40.9234 74.3815 40.4466 62.9326 39.7626 43.2704C39.7418 42.4615 39.7418 41.7148 39.7211 40.9474V40.9682Z" fill="#35763C"/>
<path d="M72.9707 56.7731C72.9085 45.3242 78.7748 36.6338 87.3152 32.693C85.3252 17.7805 79.6247 7.18194 63.6633 6.47675C63.6633 6.47675 39.3687 3.22045 39.7418 40.9686C40.1564 42.0264 40.5502 43.0842 40.9648 44.2456C40.9648 44.2456 57.5067 72.6812 43.5145 80.8738C46.2093 87.656 51.1843 89.0042 61.155 88.5686C74.0693 88.0086 81.7391 87.4693 85.4911 79.173C78.0286 74.5064 73.0536 66.2308 72.9914 56.7523L72.9707 56.7731Z" fill="#A4BC49"/>
<path d="M40.9441 44.2448C40.5295 43.0833 40.1357 42.0256 39.7211 40.9678C39.7211 41.7352 39.7211 42.4819 39.7625 43.2907C40.4466 62.953 40.9234 74.4018 43.4938 80.8937C57.486 72.7011 40.9441 44.2656 40.9441 44.2656V44.2448Z" fill="#25602E"/>
<path d="M114.947 35.0985C110.698 32.3814 105.515 30.6392 99.3796 30.3696C95.0265 30.1829 90.9428 31.0126 87.3152 32.6926C88.3724 40.657 88.3931 49.8659 88.331 59.4689C88.2688 68.74 87.3774 74.9829 85.4703 79.1933C89.5125 81.7237 94.2595 83.1963 99.3796 83.1963C104.5 83.1963 107.132 82.657 110.739 81.5992C103.318 75.0037 106.51 61.7089 114.947 35.0985Z" fill="#68AC45"/>
<path d="M87.2945 32.6924C78.7541 36.6331 72.9085 45.3235 72.9499 56.7724C72.9914 66.2509 77.9871 74.5265 85.4496 79.1931C87.3567 74.962 88.2481 68.7398 88.3102 59.4687C88.3724 49.8865 88.3517 40.6776 87.2945 32.6924Z" fill="#458C39"/>
<path d="M150.228 15.6852C136.402 -19.3667 121.311 15.2081 121.166 15.6852C118.886 22.8407 116.792 29.2911 114.947 35.0985C124.027 40.9059 128.711 51.1933 128.711 61.1281C128.711 71.0629 120.751 78.7163 110.739 81.5992C115.611 85.934 125.063 87.3859 140.651 87.8215C185.116 89.0452 164.075 50.737 150.228 15.6852Z" fill="#648943"/>
<path d="M128.691 61.1283C128.691 51.1934 124.006 40.906 114.927 35.0986C106.49 61.709 103.298 75.0246 110.719 81.5994C120.71 78.6957 128.691 71.8305 128.691 61.1283Z" fill="#35763C"/>
</svg>
