<svg width="42" height="48" viewBox="0 0 42 48" fill="none" xmlns="http://www.w3.org/2000/svg">
<rect width="42" height="48" rx="10" fill="#57820D"/>
<path d="M29.5258 29.058C30.4948 27.035 32.7728 24.315 31.2258 21.85C30.2398 20.286 18.1018 21.901 17.2688 23.652C14.8548 28.735 25.2418 24.757 27.0438 25.318C28.9988 27.222 19.4278 29.551 18.1188 29.5C14.0898 29.364 12.7978 25.709 14.7358 22.343C15.6198 20.796 23.0658 13.486 24.5278 14.54C24.9018 14.812 24.9358 17.209 26.4318 17.447C31.0558 18.161 28.3698 11.021 25.0718 10.443C20.9918 9.74597 12.4238 17.787 10.7578 21.306C7.23884 28.752 13.0018 34.056 20.5498 33.172C22.1478 32.985 23.6608 32.101 25.0718 31.829C25.3778 31.761 25.7518 31.387 25.7858 31.965C25.9388 33.393 25.5648 35.178 25.7858 36.538C26.1258 38.68 29.1688 38.697 29.5258 36.538C29.8828 34.345 29.2708 31.37 29.5258 29.058Z" fill="white"/>
</svg>
