<svg width="100" height="100" viewBox="0 0 100 100" fill="none" xmlns="http://www.w3.org/2000/svg">
<rect x="9" y="11" width="82" height="79" fill="#ECECEC"/>
<path d="M29.5555 18.8887H16.6667V80.3776H29.5555V18.8887Z" fill="#1D1D1D"/>
<path d="M74.8666 18.8887H61.9778V80.3776H74.8666V18.8887Z" fill="#1D1D1D"/>
<path d="M83.9222 77.9448H17.9445V80.3893H83.9222V77.9448Z" fill="#1D1D1D"/>
<path d="M58.5779 18.8887H26.5223V21.3331H58.5779V18.8887Z" fill="#1D1D1D"/>
<path d="M64.0667 32.3447H33.6334V34.7892H64.0667V32.3447Z" fill="#1D1D1D"/>
<path d="M58.1111 45.7998H26.4222V53.5665H58.1111V45.7998Z" fill="#1D1D1D"/>
<path d="M66.6445 64.5332H33.6445V66.9776H66.6445V64.5332Z" fill="#1D1D1D"/>
<path d="M92.2222 90H7.77777V60.1704L7.77777 10.0005L92.2222 10V90ZM10.9978 86.4857H89.0022V13.5143H10.9978V60.9471V86.4822V86.4857Z" fill="#1D1D1D"/>
</svg>
