<svg width="234" height="40" viewBox="0 0 234 40" fill="none" xmlns="http://www.w3.org/2000/svg">
<path d="M0 35.3431V34.1501H9.73154V35.3431H0ZM3.51155 34.7466L15.2758 5H16.3115L14.2401 11.3238L4.82423 34.7466H3.50601H3.51155ZM7.13941 27.2298V26.0756H20.8588V27.2298H7.13941ZM20.2607 34.7466L12.9606 14.8253H12.8L12.5618 13.3562L15.2758 5H16.3115L27.1564 34.7466H20.2551H20.2607ZM15.874 35.3431V34.1501H29.7097V35.3431H15.874Z" fill="white"/>
<path d="M40.9977 35.8568C39.3749 35.8568 37.9791 35.6303 36.8105 35.183C35.6418 34.7356 34.5617 34.1502 33.5814 33.4322L31.7093 35.3431H30.5129V26.9925H31.7481C32.0693 28.2903 32.59 29.5109 33.3211 30.6486C34.0522 31.7864 35.0436 32.7087 36.2898 33.4101C37.5416 34.1115 39.0703 34.465 40.8759 34.465C42.3658 34.465 43.6065 34.2275 44.6035 33.747C45.6004 33.272 46.3592 32.6148 46.8743 31.7808C47.395 30.9469 47.6497 30.0246 47.6497 29.0194C47.6497 28.0142 47.4116 27.1526 46.9297 26.512C46.4534 25.8768 45.833 25.3798 45.0742 25.0208C44.3154 24.6618 43.5068 24.3801 42.6427 24.1647C41.7787 23.9548 40.959 23.756 40.1891 23.5682C38.3281 23.0933 36.6942 22.4636 35.2818 21.6794C33.8749 20.8951 32.7727 19.8844 31.9918 18.6362C31.2053 17.3881 30.8176 15.8416 30.8176 13.9859C30.8176 11.9424 31.2551 10.2635 32.1358 8.93795C33.0109 7.61244 34.1685 6.62384 35.603 5.97765C37.0376 5.32595 38.5662 5.00562 40.1891 5.00562C41.3855 5.00562 42.4544 5.17683 43.4015 5.52477C44.3431 5.86719 45.3512 6.37531 46.4146 7.03806L47.971 5.37013H49.2061V13.4833H48.0098C47.2399 10.9649 46.2041 9.15887 44.897 8.05428C43.5954 6.95521 42.0003 6.40292 40.1115 6.40292C38.9706 6.40292 37.9237 6.57965 36.9822 6.93865C36.0406 7.29764 35.2873 7.80575 34.7279 8.4685C34.1685 9.13125 33.8916 9.91551 33.8916 10.8158C33.8916 11.6663 34.1297 12.3622 34.6116 12.9034C35.0879 13.4447 35.7138 13.8755 36.4837 14.1958C37.2536 14.5161 38.0788 14.7812 38.954 14.9911C39.8291 15.201 40.671 15.4053 41.4685 15.5876C43.4902 16.0681 45.1906 16.7198 46.5752 17.5537C47.9599 18.3877 49.0067 19.4813 49.7268 20.8344C50.4468 22.1875 50.8013 23.883 50.8013 25.9265C50.8013 29.0525 49.9594 31.4937 48.2701 33.2444C46.5808 34.9952 44.1548 35.8678 40.9922 35.8678L40.9977 35.8568Z" fill="white"/>
<path d="M64.6425 35.8568C63.0197 35.8568 61.6239 35.6303 60.4552 35.183C59.2866 34.7356 58.2065 34.1502 57.2262 33.4322L55.3541 35.3431H54.1577V26.9925H55.3929C55.7141 28.2903 56.2347 29.5109 56.9658 30.6486C57.697 31.7864 58.6884 32.7087 59.9346 33.4101C61.1864 34.1115 62.715 34.465 64.5207 34.465C66.0106 34.465 67.2513 34.2275 68.2482 33.747C69.2452 33.272 70.004 32.6148 70.5191 31.7808C71.0397 30.9469 71.2945 30.0246 71.2945 29.0194C71.2945 28.0142 71.0564 27.1526 70.5745 26.512C70.0982 25.8768 69.4778 25.3798 68.719 25.0208C67.9602 24.6618 67.1516 24.3801 66.2875 24.1647C65.4235 23.9548 64.6037 23.756 63.8339 23.5682C61.9729 23.0933 60.3389 22.4636 58.9266 21.6794C57.5197 20.8951 56.4175 19.8844 55.6366 18.6362C54.8501 17.3881 54.4623 15.8416 54.4623 13.9859C54.4623 11.9424 54.8999 10.2635 55.7806 8.93795C56.6557 7.61244 57.8133 6.62384 59.2478 5.97765C60.6823 5.32595 62.211 5.00562 63.8339 5.00562C65.0302 5.00562 66.0992 5.17683 67.0463 5.52477C67.9879 5.86719 68.996 6.37531 70.0594 7.03806L71.6158 5.37013H72.8509V13.4833H71.6545C70.8847 10.9649 69.8489 9.15887 68.5418 8.05428C67.2402 6.95521 65.645 6.40292 63.7563 6.40292C62.6153 6.40292 61.5685 6.57965 60.6269 6.93865C59.6854 7.29764 58.9321 7.80575 58.3727 8.4685C57.8133 9.13125 57.5363 9.91551 57.5363 10.8158C57.5363 11.6663 57.7745 12.3622 58.2564 12.9034C58.7327 13.4447 59.3586 13.8755 60.1285 14.1958C60.8983 14.5161 61.7236 14.7812 62.5987 14.9911C63.4738 15.201 64.3157 15.4053 65.1133 15.5876C67.1349 16.0681 68.8353 16.7198 70.22 17.5537C71.6047 18.3877 72.6515 19.4813 73.3715 20.8344C74.0916 22.1875 74.4461 23.883 74.4461 25.9265C74.4461 29.0525 73.6042 31.4937 71.9149 33.2444C70.2256 34.9952 67.7996 35.8678 64.637 35.8678L64.6425 35.8568Z" fill="white"/>
<path d="M99.6139 13.3119C99.5862 12.0914 99.3148 10.9702 98.7942 9.95398C98.2735 8.93223 97.5369 8.10931 96.5787 7.49074C95.6205 6.86665 94.4629 6.55737 93.1114 6.55737H76.2405V5.35889H101.204V13.3119H99.6084H99.6139ZM76.246 35.3429V34.15H93.117C94.6069 34.15 95.8697 33.7523 96.9055 32.957C97.9412 32.1617 98.7443 31.1124 99.3204 29.8145C99.8964 28.5166 100.19 27.1082 100.218 25.6005H101.813V35.3429H76.2516H76.246ZM80.0345 34.7465V5.35889H86.3376V34.7465H80.0345ZM93.4715 26.7492C93.4438 25.479 93.1945 24.4296 92.7127 23.6067C92.2363 22.7838 91.4609 22.1763 90.3975 21.7786C89.334 21.3809 87.9272 21.1821 86.1714 21.1821V19.9892C87.9272 19.9892 89.334 19.8069 90.3975 19.4313C91.4609 19.0613 92.2308 18.4924 92.7127 17.7192C93.189 16.9515 93.4438 15.985 93.4715 14.8142H95.0666V26.7437H93.4715V26.7492Z" fill="white"/>
<path d="M118.839 35.6964L110.304 8.13693H110.143V34.1445H114.53V35.3374H104V34.1445H108.387V6.55184H104V5.35889H116.601L122.223 23.452H122.384L128.011 5.35889H139.576V6.55184H135.427V34.15H139.576V35.3429H124.859V34.15H129.124V8.14245H128.964L120.467 35.7019H118.833L118.839 35.6964Z" fill="white"/>
<path d="M149.263 20.7458V19.354H155.644C156.763 19.354 157.671 19.1828 158.374 18.8349C159.078 18.4924 159.598 17.8518 159.931 16.9239C160.263 15.9961 160.429 14.6595 160.429 12.9088C160.429 11.158 160.263 9.78829 159.931 8.87148C159.598 7.95467 159.078 7.34162 158.374 7.02129C157.671 6.70096 156.757 6.54632 155.644 6.54632H141.166V5.35889H157.239C159.1 5.35889 160.784 5.63503 162.285 6.19285C163.786 6.75067 164.982 7.58463 165.874 8.70027C166.766 9.8159 167.209 11.2077 167.209 12.8756C167.209 14.5435 166.716 16.0513 165.735 17.2277C164.749 18.4096 163.398 19.2878 161.67 19.8732C159.942 20.4586 157.937 20.7458 155.649 20.7458H149.269H149.263ZM141.171 35.3429V34.15H155.649C156.818 34.15 157.815 33.9622 158.64 33.5922C159.465 33.2221 160.102 32.5262 160.557 31.5045C161.011 30.4828 161.232 29.0357 161.232 27.1524C161.232 25.4845 161.038 24.1811 160.656 23.2532C160.269 22.3254 159.621 21.6737 158.701 21.3036C157.782 20.9336 156.541 20.7458 154.974 20.7458L153.777 19.354C156.674 19.354 159.216 19.6247 161.393 20.1714C163.575 20.7127 165.276 21.5908 166.5 22.7948C167.724 24.0043 168.333 25.6115 168.333 27.6274C168.333 29.4058 167.846 30.8638 166.876 32.0016C165.907 33.1393 164.583 33.9843 162.911 34.5256C161.238 35.0668 159.349 35.3429 157.25 35.3429H141.177H141.171ZM145.159 34.7465V5.35889H151.462V34.7465H145.159Z" fill="white"/>
<path d="M170.919 6.55184V5.35889H185.713V6.55184H170.919ZM170.919 35.3429V34.15H187.79C189.28 34.15 190.543 33.7523 191.579 32.957C192.615 32.1617 193.418 31.1124 193.994 29.8145C194.57 28.5166 194.863 27.1082 194.891 25.6005H196.486V35.3429H170.925H170.919ZM174.708 34.7465V5.35889H181.011V34.7465H174.708Z" fill="white"/>
<path d="M206.899 5H200.474V35.564H206.899V5Z" fill="white"/>
<path d="M229.486 5H223.061V35.564H229.486V5Z" fill="white"/>
<path d="M234 34.3545H201.111V35.5695H234V34.3545Z" fill="white"/>
<path d="M221.366 5H205.387V6.21505H221.366V5Z" fill="white"/>
<path d="M224.102 11.6882H208.932V12.9033H224.102V11.6882Z" fill="white"/>
<path d="M221.134 18.3765H205.337V22.237H221.134V18.3765Z" fill="white"/>
<path d="M225.387 27.6882H208.937V28.9033H225.387V27.6882Z" fill="white"/>
</svg>
