<svg width="140" height="24" viewBox="0 0 140 24" fill="none" xmlns="http://www.w3.org/2000/svg">
<path d="M0 21.2058V20.4901H5.82229V21.2058H0ZM2.10093 20.8479L9.13937 3H9.75904L8.51969 6.79426L2.88629 20.8479H2.09761H2.10093ZM4.27144 16.3379V15.6453H12.4796V16.3379H4.27144ZM12.1218 20.8479L7.75421 8.89519H7.65811L7.51562 8.01373L9.13937 3H9.75904L16.2474 20.8479H12.1184H12.1218ZM9.49725 21.2058V20.4901H17.775V21.2058H9.49725Z" fill="#1D1D1D"/>
<path d="M24.5286 21.514C23.5576 21.514 22.7226 21.3781 22.0234 21.1097C21.3242 20.8413 20.678 20.49 20.0914 20.0593L18.9714 21.2058H18.2556V16.1954H18.9946C19.1868 16.9741 19.4983 17.7065 19.9357 18.3891C20.3731 19.0717 20.9663 19.6251 21.7119 20.046C22.4608 20.4668 23.3754 20.6789 24.4557 20.6789C25.3471 20.6789 26.0894 20.5364 26.6858 20.2481C27.2823 19.9632 27.7363 19.5688 28.0445 19.0684C28.356 18.5681 28.5084 18.0147 28.5084 17.4116C28.5084 16.8084 28.3659 16.2915 28.0776 15.9071C27.7926 15.526 27.4215 15.2278 26.9675 15.0124C26.5135 14.797 26.0297 14.628 25.5128 14.4988C24.9958 14.3728 24.5054 14.2535 24.0448 14.1409C22.9313 13.8559 21.9538 13.4781 21.1088 13.0076C20.2671 12.537 19.6076 11.9306 19.1404 11.1817C18.6698 10.4328 18.4379 9.50491 18.4379 8.39148C18.4379 7.16539 18.6997 6.158 19.2265 5.3627C19.7501 4.56739 20.4427 3.97423 21.301 3.58652C22.1592 3.19549 23.0738 3.0033 24.0448 3.0033C24.7605 3.0033 25.4001 3.10602 25.9667 3.31479C26.5301 3.52024 27.1332 3.82511 27.7694 4.22276L28.7006 3.222H29.4396V8.08993H28.7238C28.2632 6.57885 27.6435 5.49525 26.8615 4.83249C26.0827 4.17306 25.1284 3.84168 23.9984 3.84168C23.3157 3.84168 22.6894 3.94772 22.1261 4.16311C21.5628 4.37851 21.1121 4.68338 20.7774 5.08103C20.4427 5.47868 20.277 5.94923 20.277 6.48938C20.277 6.9997 20.4195 7.41723 20.7078 7.74198C20.9928 8.06673 21.3672 8.3252 21.8279 8.5174C22.2885 8.7096 22.7822 8.86866 23.3058 8.99459C23.8294 9.12051 24.3331 9.24312 24.8102 9.35247C26.0198 9.64077 27.0371 10.0318 27.8655 10.5322C28.694 11.0326 29.3203 11.6887 29.7511 12.5006C30.1819 13.3124 30.3939 14.3297 30.3939 15.5558C30.3939 17.4314 29.8902 18.8961 28.8795 19.9466C27.8689 20.997 26.4174 21.5206 24.5253 21.5206L24.5286 21.514Z" fill="#1D1D1D"/>
<path d="M38.6751 21.514C37.7041 21.514 36.8691 21.3781 36.1699 21.1097C35.4706 20.8413 34.8245 20.49 34.2379 20.0593L33.1179 21.2058H32.4021V16.1954H33.1411C33.3333 16.9741 33.6448 17.7065 34.0822 18.3891C34.5196 19.0717 35.1128 19.6251 35.8584 20.046C36.6073 20.4668 37.5219 20.6789 38.6022 20.6789C39.4936 20.6789 40.2358 20.5364 40.8323 20.2481C41.4288 19.9632 41.8828 19.5688 42.191 19.0684C42.5025 18.5681 42.6549 18.0147 42.6549 17.4116C42.6549 16.8084 42.5124 16.2915 42.2241 15.9071C41.9391 15.526 41.568 15.2278 41.114 15.0124C40.66 14.797 40.1762 14.628 39.6592 14.4988C39.1423 14.3728 38.6519 14.2535 38.1912 14.1409C37.0778 13.8559 36.1003 13.4781 35.2553 13.0076C34.4136 12.537 33.7541 11.9306 33.2869 11.1817C32.8163 10.4328 32.5844 9.50491 32.5844 8.39148C32.5844 7.16539 32.8461 6.158 33.373 5.3627C33.8966 4.56739 34.5892 3.97423 35.4475 3.58652C36.3057 3.19549 37.2203 3.0033 38.1912 3.0033C38.907 3.0033 39.5466 3.10602 40.1132 3.31479C40.6766 3.52024 41.2797 3.82511 41.9159 4.22276L42.8471 3.222H43.5861V8.08993H42.8703C42.4097 6.57885 41.79 5.49525 41.008 4.83249C40.2292 4.17306 39.2749 3.84168 38.1449 3.84168C37.4622 3.84168 36.8359 3.94772 36.2726 4.16311C35.7092 4.37851 35.2586 4.68338 34.9239 5.08103C34.5892 5.47868 34.4235 5.94923 34.4235 6.48938C34.4235 6.9997 34.566 7.41723 34.8543 7.74198C35.1393 8.06673 35.5137 8.3252 35.9743 8.5174C36.435 8.7096 36.9287 8.86866 37.4523 8.99459C37.9759 9.12051 38.4795 9.24312 38.9567 9.35247C40.1663 9.64077 41.1836 10.0318 42.012 10.5322C42.8405 11.0326 43.4668 11.6887 43.8976 12.5006C44.3283 13.3124 44.5404 14.3297 44.5404 15.5558C44.5404 17.4314 44.0367 18.8961 43.026 19.9466C42.0153 20.997 40.5639 21.5206 38.6717 21.5206L38.6751 21.514Z" fill="#1D1D1D"/>
<path d="M59.5981 7.98722C59.5815 7.25487 59.4192 6.58218 59.1077 5.97245C58.7962 5.3594 58.3554 4.86565 57.7822 4.49451C57.2089 4.12005 56.5163 3.93448 55.7077 3.93448H45.614V3.21539H60.5492V7.98722H59.5948H59.5981ZM45.6173 21.2058V20.4901H55.7111C56.6025 20.4901 57.358 20.2515 57.9777 19.7743C58.5974 19.2971 59.0779 18.6675 59.4225 17.8888C59.7671 17.11 59.9427 16.265 59.9593 15.3603H60.9137V21.2058H45.6206H45.6173ZM47.8839 20.8479V3.21539H51.655V20.8479H47.8839ZM55.9231 16.0496C55.9066 15.2874 55.7575 14.6578 55.4692 14.1641C55.1842 13.6703 54.7202 13.3058 54.084 13.0672C53.4478 12.8286 52.6061 12.7093 51.5556 12.7093V11.9936C52.6061 11.9936 53.4478 11.8842 54.084 11.6589C54.7202 11.4368 55.1809 11.0955 55.4692 10.6316C55.7541 10.171 55.9066 9.59108 55.9231 8.88856H56.8775V16.0463H55.9231V16.0496Z" fill="#1D1D1D"/>
<path d="M71.1002 21.4179L65.9937 4.88222H65.8976V20.4867H68.5221V21.2025H62.2227V20.4867H64.8472V3.93117H62.2227V3.21539H69.7615L73.1249 14.0713H73.221L76.5878 3.21539H83.507V3.93117H81.025V20.4901H83.507V21.2058H74.7023V20.4901H77.2539V4.88553H77.1578L72.0745 21.4212H71.0969L71.1002 21.4179Z" fill="#1D1D1D"/>
<path d="M89.3027 12.4475V11.6125H93.1202C93.7896 11.6125 94.333 11.5098 94.7539 11.301C95.1747 11.0955 95.4862 10.7111 95.6851 10.1544C95.8839 9.59771 95.9833 8.79578 95.9833 7.74531C95.9833 6.69485 95.8839 5.87303 95.6851 5.32295C95.4862 4.77286 95.1747 4.40504 94.7539 4.21284C94.333 4.02064 93.7863 3.92785 93.1202 3.92785H84.458V3.21539H94.0746C95.188 3.21539 96.1954 3.38108 97.0934 3.71577C97.9914 4.05046 98.7072 4.55084 99.2407 5.22022C99.7742 5.8896 100.039 6.72467 100.039 7.72543C100.039 8.72619 99.7444 9.63084 99.1579 10.3367C98.568 11.0458 97.7595 11.5727 96.7256 11.924C95.6917 12.2752 94.4921 12.4475 93.1235 12.4475H89.306H89.3027ZM84.4613 21.2058V20.4901H93.1235C93.8227 20.4901 94.4192 20.3774 94.9129 20.1554C95.4067 19.9333 95.7878 19.5158 96.0595 18.9028C96.3312 18.2897 96.4638 17.4215 96.4638 16.2915C96.4638 15.2908 96.3478 14.5087 96.1192 13.952C95.8872 13.3953 95.4995 13.0043 94.9494 12.7822C94.3993 12.5602 93.657 12.4475 92.7192 12.4475L92.0035 11.6125C93.7366 11.6125 95.2576 11.7749 96.5599 12.1029C97.8655 12.4277 98.8828 12.9546 99.6152 13.677C100.348 14.4027 100.712 15.367 100.712 16.5765C100.712 17.6435 100.42 18.5184 99.8405 19.201C99.2606 19.8836 98.4686 20.3906 97.4679 20.7154C96.4671 21.0401 95.3371 21.2058 94.0812 21.2058H84.4646H84.4613ZM86.8472 20.8479V3.21539H90.6183V20.8479H86.8472Z" fill="#1D1D1D"/>
<path d="M102.26 3.93117V3.21539H111.111V3.93117H102.26ZM102.26 21.2058V20.4901H112.353C113.245 20.4901 114 20.2515 114.62 19.7743C115.24 19.2971 115.72 18.6675 116.065 17.8888C116.409 17.11 116.585 16.265 116.602 15.3603H117.556V21.2058H102.263H102.26ZM104.526 20.8479V3.21539H108.297V20.8479H104.526Z" fill="#1D1D1D"/>
<path d="M123.786 3H119.942V21.3384H123.786V3Z" fill="#1D1D1D"/>
<path d="M137.299 3H133.455V21.3384H137.299V3Z" fill="#1D1D1D"/>
<path d="M140 20.6127H120.323V21.3417H140V20.6127Z" fill="#1D1D1D"/>
<path d="M132.441 3H122.881V3.72903H132.441V3Z" fill="#1D1D1D"/>
<path d="M134.078 7.013H125.002V7.74203H134.078V7.013Z" fill="#1D1D1D"/>
<path d="M132.302 11.0259H122.851V13.3423H132.302V11.0259Z" fill="#1D1D1D"/>
<path d="M134.847 16.613H125.005V17.342H134.847V16.613Z" fill="#1D1D1D"/>
</svg>
