<svg width="45" height="45" viewBox="0 0 45 45" fill="none" xmlns="http://www.w3.org/2000/svg">
<path d="M6 19.7145C6 20.1568 6.06434 20.6152 6.24132 21.0495C7.02161 22.9796 9.00854 24.1698 11.5344 23.1646C12.1377 22.9233 28.8456 16.1921 28.8456 16.1921C28.8456 16.1921 22.2655 32.8714 22.0161 33.4906C21.0588 35.8791 22.2091 38.0424 24.1639 38.7662C24.5983 38.9271 25.0488 39.0075 25.4912 38.9995C27.092 38.9914 28.4997 38.0505 29.1915 36.1686C29.2961 35.8872 37.5254 13.297 37.7024 12.7581C37.8069 12.4364 38 11.6805 38 11.1578C38 10.0399 37.5897 8.98639 36.7934 8.19023C36.0131 7.4021 34.9673 7 33.8653 7C33.3263 7 32.8919 7.09651 32.2323 7.3056C31.8381 7.43427 10.6254 15.3236 8.81549 15.9991C7.00553 16.6746 6 18.1222 6.00804 19.7145" fill="#CE0112"/>
</svg>
