<svg width="80" height="80" viewBox="0 0 80 80" fill="none" xmlns="http://www.w3.org/2000/svg">
<rect x="7.2002" y="8.7998" width="65.6" height="63.2" fill="#ECECEC"/>
<path d="M23.6441 15.1113H13.333V64.3024H23.6441V15.1113Z" fill="#1D1D1D"/>
<path d="M59.8931 15.1113H49.582V64.3024H59.8931V15.1113Z" fill="#1D1D1D"/>
<path d="M67.1377 62.3555H14.3555V64.311H67.1377V62.3555Z" fill="#1D1D1D"/>
<path d="M46.8622 15.1113H21.2178V17.0669H46.8622V15.1113Z" fill="#1D1D1D"/>
<path d="M51.2529 25.876H26.9062V27.8315H51.2529V25.876Z" fill="#1D1D1D"/>
<path d="M46.4888 36.6396H21.1377V42.853H46.4888V36.6396Z" fill="#1D1D1D"/>
<path d="M53.316 51.627H26.916V53.5825H53.316V51.627Z" fill="#1D1D1D"/>
<path d="M73.7782 72H6.22266V48.1364L6.22266 8.0004L73.7782 8V72ZM8.79865 69.1885H71.2022V10.8115H8.79865V48.7577V69.1857V69.1885Z" fill="#1D1D1D"/>
</svg>
