<svg width="70" height="75" viewBox="0 0 70 75" fill="none" xmlns="http://www.w3.org/2000/svg">
<path d="M19.8625 30.9393H20.1375C22.3063 30.9393 24.0625 32.6956 24.0625 34.8643V35.1393C24.0625 37.3018 22.3063 39.0643 20.1375 39.0643H19.8625C17.6938 39.0643 15.9375 37.3081 15.9375 35.1393V34.8643C15.9375 32.6956 17.6938 30.9393 19.8625 30.9393Z" fill="white"/>
<path d="M20.1375 40.0018H19.8625C17.1813 40.0018 15 37.8206 15 35.1393V34.8581C15 32.1831 17.1813 30.0018 19.8625 30.0018H20.1375C22.8188 30.0018 25 32.1831 25 34.8643V35.1456C25 37.8268 22.8188 40.0081 20.1375 40.0081V40.0018ZM19.8625 31.8768C18.2188 31.8768 16.875 33.2143 16.875 34.8643V35.1456C16.875 36.7893 18.2125 38.1331 19.8625 38.1331H20.1375C21.7875 38.1331 23.125 36.7956 23.125 35.1456V34.8643C23.125 33.2206 21.7875 31.8768 20.1375 31.8768H19.8625Z" fill="#23292A"/>
<path d="M65.0625 34.9331C65.0625 37.1018 63.8875 39.0643 61.725 39.0643H61.6375C59.4687 39.0643 56.9375 37.1018 56.9375 34.9331V34.8456C56.9375 32.6768 59.4687 30.9393 61.6375 30.9393H61.725C63.8938 30.9393 65.0625 32.6768 65.0625 34.8456V34.9331Z" fill="white"/>
<path d="M61.725 40.0018H61.6375C59.0875 40.0018 56 37.7393 56 34.9331V34.8456C56 32.1206 59.0312 30.0018 61.6375 30.0018H61.725C64.2438 30.0018 66 31.9956 66 34.8456V34.9331C66 37.8706 64.2 40.0018 61.725 40.0018ZM61.6375 31.8768C59.9437 31.8768 57.875 33.2456 57.875 34.8456V34.9331C57.875 36.5768 59.9937 38.1268 61.6375 38.1268H61.725C63.3875 38.1268 64.125 36.5206 64.125 34.9331V34.8456C64.125 33.4081 63.4938 31.8768 61.725 31.8768H61.6375Z" fill="#23292A"/>
<path d="M40.4396 7.65768H40.1176C28.7953 7.65768 19.6167 16.8563 19.6167 28.2034V42.9832C19.6167 54.3303 28.7953 63.5289 40.1176 63.5289H40.4396C51.762 63.5289 60.9406 54.3303 60.9406 42.9832V28.2034C60.9406 16.8563 51.762 7.65768 40.4396 7.65768Z" fill="white"/>
<path d="M40.6599 63H40.3401C28.5749 63 19 53.4815 19 41.7857V27.2143C19 15.5184 28.5749 5.99998 40.3401 5.99998H40.6599C52.4251 5.99998 62 15.5184 62 27.2143V41.7857C62 53.4815 52.4251 63 40.6599 63ZM40.3331 7.94238C29.6457 7.94238 20.947 16.5898 20.947 27.2143V41.7857C20.947 52.4101 29.6457 61.0576 40.3331 61.0576H40.653C51.3404 61.0576 60.0391 52.4101 60.0391 41.7857V27.2143C60.0391 16.5898 51.3404 7.94238 40.653 7.94238H40.3331Z" fill="#1D1D1D"/>
<path d="M36.0581 52.4318C36.0581 52.4318 40.7546 57.3841 45.6961 52.4318H36.0581Z" fill="white"/>
<path d="M40.9995 55.6866C40.9995 55.6866 40.9435 55.6866 40.9085 55.6866C37.6819 55.6445 35.3861 53.2595 35.2881 53.1543C34.8891 52.7334 34.9031 52.0671 35.3301 51.6672C35.7501 51.2674 36.415 51.2814 36.8139 51.7023C36.8489 51.7374 38.6338 53.5542 40.9575 53.5822C40.9715 53.5822 40.9855 53.5822 40.9995 53.5822C42.3714 53.5822 43.7013 52.9439 44.9541 51.6883C45.3671 51.2744 46.032 51.2744 46.438 51.6883C46.8439 52.1021 46.8509 52.7685 46.438 53.1754C44.7722 54.8448 42.9453 55.6866 40.9995 55.6866Z" fill="#1D1D1D"/>
<path d="M31.2705 17.4501C31.2705 17.4501 45.1082 28.8137 57.4059 29.7326C69.7037 30.6515 64.9022 16.8749 58.1409 10.6038C47.2219 0.474751 24.1943 0.285357 23.8303 11.1369C23.8303 11.1369 10.0557 15.3878 20.3306 28.8137C20.3306 28.8137 31.8235 26.092 31.2705 17.4501Z" fill="#1D1D1D"/>
<path d="M33.104 36.8524C33.104 37.8134 32.3271 38.592 31.3682 38.592C30.4092 38.592 29.6323 37.8134 29.6323 36.8524C29.6323 35.8914 30.4092 35.1128 31.3682 35.1128C32.3271 35.1128 33.104 35.8914 33.104 36.8524Z" fill="#1D1D1D"/>
<path d="M52.583 36.8524C52.583 37.8134 51.8061 38.592 50.8472 38.592C49.8883 38.592 49.1113 37.8134 49.1113 36.8524C49.1113 35.8914 49.8883 35.1128 50.8472 35.1128C51.8061 35.1128 52.583 35.8914 52.583 36.8524Z" fill="#1D1D1D"/>
<path d="M31.1372 43.1655C27.9175 43.1655 25.2998 40.5421 25.2998 37.3154C25.2998 34.0887 27.9175 31.4652 31.1372 31.4652C34.3569 31.4652 36.9746 34.0887 36.9746 37.3154C36.9746 40.5421 34.3569 43.1655 31.1372 43.1655ZM31.1372 33.5766C29.0794 33.5766 27.3996 35.2531 27.3996 37.3224C27.3996 39.3917 29.0724 41.0682 31.1372 41.0682C33.202 41.0682 34.8748 39.3917 34.8748 37.3224C34.8748 35.2531 33.202 33.5766 31.1372 33.5766Z" fill="#1D1D1D"/>
<path d="M50.9595 43.1655C47.7398 43.1655 45.1221 40.5421 45.1221 37.3154C45.1221 34.0887 47.7398 31.4652 50.9595 31.4652C54.1792 31.4652 56.7969 34.0887 56.7969 37.3154C56.7969 40.5421 54.1792 43.1655 50.9595 43.1655ZM50.9595 33.5766C48.9017 33.5766 47.2219 35.2531 47.2219 37.3224C47.2219 39.3917 48.8947 41.0682 50.9595 41.0682C53.0243 41.0682 54.6971 39.3917 54.6971 37.3224C54.6971 35.2531 53.0243 33.5766 50.9595 33.5766Z" fill="#1D1D1D"/>
<path d="M35.582 35.3864C35.582 35.3864 40.5795 30.7567 46.4169 35.5477L35.582 35.3864Z" fill="white"/>
<path d="M45.7589 36.3614C40.7194 32.2298 36.4778 35.9966 36.2959 36.165L34.875 34.6148C34.931 34.5587 40.6144 29.424 47.0888 34.734L45.7589 36.3614Z" fill="#1D1D1D"/>
<path d="M25.8598 36.2772C25.8248 36.2351 22.5631 32.2368 18.8955 31.5775L19.2385 29.5011C23.641 30.2938 27.2597 34.734 27.4067 34.9234L25.8598 36.2772Z" fill="#1D1D1D"/>
<path d="M56.069 36.2772L54.6831 34.9234C54.8091 34.748 57.7908 30.6585 61.5004 29.6204L61.9204 31.6686C58.7917 32.5384 56.09 36.2351 56.062 36.2772H56.069Z" fill="#1D1D1D"/>
<path d="M40.6915 46.5676C40.3835 46.5676 40.0895 46.4975 39.8096 46.3572C37.3948 45.1437 38.0737 38.585 38.4727 35.8213C38.5567 35.2461 39.0886 34.8462 39.6626 34.9304C40.2365 35.0146 40.6355 35.5477 40.5515 36.1229C39.9915 39.9809 40.0895 43.9512 40.7545 44.4773C40.7545 44.4562 41.1114 44.3861 41.8744 43.6285C42.2873 43.2146 42.9522 43.2146 43.3582 43.6285C43.7642 44.0424 43.7712 44.7088 43.3582 45.1156C42.3923 46.0836 41.4964 46.5746 40.6915 46.5746V46.5676Z" fill="#1D1D1D"/>
<path d="M12.9421 48.3866C14.8879 47.2924 15.2519 47.0539 15.3079 47.0188C15.3079 47.0188 15.3709 46.9837 15.3989 46.9627C15.6508 46.8154 15.7418 46.4927 15.5948 46.2402L10.0794 36.6723C9.93241 36.4198 9.61744 36.3356 9.35847 36.4829C9.35847 36.4829 6.0688 37.998 4.004 39.899C1.49125 42.2138 0.784324 45.3634 1.14129 48.3305C1.58924 52.1184 6.80372 60.6902 6.80372 60.6902C6.80372 60.6902 11.6052 69.5006 14.6499 71.7803C17.0437 73.569 20.1164 74.53 23.3711 73.5129C26.0448 72.6712 29.0055 70.5738 29.0055 70.5738C29.2575 70.4265 29.3415 70.1038 29.2015 69.8583L23.686 60.2904C23.539 60.0379 23.2241 59.9537 22.9651 60.101C22.9301 60.1221 22.9091 60.1501 22.8811 60.1712C22.8811 60.1712 22.4262 60.3816 20.5084 61.525C18.0656 62.977 18.0026 64.3308 18.0026 64.3308C16.8757 63.6364 13.2151 56.9865 13.2151 56.9865C13.2151 56.9865 9.29547 50.491 9.26048 49.1583C9.26048 49.1583 10.5204 49.7405 12.9421 48.3866Z" fill="white"/>
<path d="M20.6902 74.2845C18.5484 74.2845 16.3926 73.534 14.4398 72.0679C11.3671 69.7671 6.69159 61.2233 6.49561 60.8656C6.29263 60.5289 1.24614 52.2026 0.791181 48.3796C0.378222 44.8934 1.43512 41.7929 3.76588 39.6465C5.84468 37.7315 9.07135 36.2304 9.21134 36.1672C9.5963 35.9428 10.1352 36.0831 10.3802 36.5039L15.8957 46.0718C16.1336 46.4927 15.9867 47.0258 15.5737 47.2713L15.4827 47.3274C14.9788 47.6501 13.9149 48.2464 13.1169 48.6953C11.5141 49.5932 10.3662 49.6843 9.72229 49.6212C10.2052 51.0662 12.207 54.6296 13.5229 56.8112C14.7548 59.0488 16.8266 62.5561 17.8345 63.7065C18.0935 63.1173 18.7374 62.1773 20.3402 61.2304C21.9151 60.2974 22.517 59.9818 22.692 59.8906C22.72 59.8625 22.755 59.8345 22.804 59.8064C23.007 59.6872 23.2449 59.6521 23.4759 59.7152C23.6999 59.7783 23.8889 59.9186 24.0009 60.1221L29.5163 69.69C29.7543 70.1108 29.6073 70.6439 29.1943 70.8895C29.1033 70.9596 26.1916 73.0079 23.4899 73.8566C22.573 74.1442 21.6421 74.2845 20.7042 74.2845H20.6902ZM9.6313 36.7705C9.6313 36.7705 9.5683 36.7775 9.54031 36.7915C9.47731 36.8196 6.24364 38.3207 4.24883 40.1655C2.08605 42.1577 1.10615 45.0477 1.49111 48.3025C1.92507 51.9711 7.04855 60.4307 7.10455 60.5149C7.16054 60.6201 11.9131 69.2971 14.8598 71.5067C17.4775 73.4708 20.4662 74.0671 23.2659 73.1832C25.8557 72.3695 28.7744 70.3143 28.8024 70.2932C28.9144 70.2301 28.9424 70.1178 28.8934 70.0337L23.3779 60.4658C23.3499 60.4097 23.3009 60.3956 23.2729 60.3886C23.2309 60.3746 23.1819 60.3886 23.1399 60.4097L23.028 60.4938C23.028 60.4938 22.545 60.7253 20.6832 61.8266C18.4714 63.1383 18.3454 64.3448 18.3454 64.3589L18.2964 64.927L17.8135 64.6324C16.6376 63.9099 13.2849 57.8493 12.907 57.1549C12.508 56.4955 8.94536 50.5471 8.91037 49.1723L8.89637 48.6111L9.40732 48.8496C9.40732 48.8496 10.5692 49.3196 12.767 48.092C13.5649 47.6431 14.6148 47.0539 15.0908 46.7522L15.2167 46.6751C15.3077 46.626 15.3357 46.5138 15.2867 46.4296L9.77128 36.8617C9.73629 36.8056 9.68029 36.7775 9.6173 36.7775L9.6313 36.7705Z" fill="#1D1D1D"/>
<path d="M20.6902 74.6493C18.4644 74.6493 16.2317 73.8566 14.2299 72.3625C11.0942 70.0126 6.38365 61.4057 6.18767 61.041C5.98469 60.7113 0.903194 52.3218 0.44124 48.4287C0.014283 44.8232 1.11317 41.6176 3.53493 39.3869C5.65572 37.4298 8.93139 35.9077 9.07138 35.8445C9.20436 35.7674 9.41434 35.7113 9.63132 35.7113C10.0723 35.7113 10.4782 35.9498 10.7022 36.3286L16.2177 45.8965C16.5536 46.4927 16.3506 47.2503 15.7627 47.587L15.6717 47.6431C15.2448 47.9096 14.4538 48.3656 13.299 49.0179C11.9691 49.7615 10.9332 49.9719 10.2543 50C10.8632 51.445 12.396 54.2438 13.8379 56.6288C15.1888 59.0839 16.8336 61.8056 17.7785 63.0612C18.1635 62.4509 18.8704 61.6863 20.1583 60.9217C21.6211 60.0519 22.2511 59.7152 22.482 59.596C22.517 59.5679 22.559 59.5328 22.622 59.4977C23.196 59.1681 23.9869 59.3785 24.3089 59.9467L29.8243 69.5146C30.1603 70.1108 29.9573 70.8614 29.3693 71.2051C29.2994 71.2612 26.3456 73.3446 23.5949 74.2073C22.643 74.509 21.6701 74.6563 20.6972 74.6563L20.6902 74.6493ZM9.55433 37.1843C8.8684 37.521 6.20866 38.8538 4.48684 40.4321C2.41504 42.3401 1.47714 45.1249 1.8481 48.2604C2.27506 51.8518 7.35655 60.2483 7.41254 60.3325C7.47554 60.4517 12.1861 69.0586 15.0768 71.2261C17.5895 73.1061 20.4662 73.6953 23.161 72.8465C25.4357 72.131 27.9765 70.4335 28.5014 70.0758L23.175 60.8305C23.105 60.8656 22.587 61.1251 20.8722 62.1422C18.8634 63.3347 18.7094 64.3869 18.7094 64.4009C18.6814 64.6394 18.5274 64.8639 18.3105 64.9691C18.0935 65.0744 17.8345 65.0743 17.6315 64.9481C16.4346 64.2116 13.4739 58.9366 12.599 57.3373C11.6681 55.8011 8.59542 50.5962 8.55343 49.1863C8.55343 48.9408 8.66542 48.7093 8.8754 48.576C9.07838 48.4428 9.33735 48.4217 9.56133 48.5269C9.56133 48.5269 10.6392 48.8777 12.599 47.7764C13.3759 47.3415 14.3978 46.7593 14.8948 46.4506L9.56133 37.1914L9.55433 37.1843Z" fill="#1D1D1D"/>
<path d="M20.6901 75C18.3873 75 16.0846 74.1863 14.0198 72.6431C10.8001 70.2301 6.07558 61.5811 5.8796 61.2093C5.8376 61.1392 0.57413 52.5042 0.0981777 48.4708C-0.342778 44.7531 0.798108 41.4352 3.29686 39.1274C5.46664 37.1282 8.78431 35.592 8.92429 35.5289C9.07828 35.4307 9.35825 35.3605 9.63122 35.3605C10.1982 35.3605 10.7231 35.6622 11.0031 36.1532L16.5185 45.7211C16.7285 46.0929 16.7845 46.5208 16.6725 46.9276C16.5605 47.3345 16.2946 47.6782 15.9306 47.8886L15.8396 47.9447C15.4056 48.2113 14.6077 48.6813 13.4598 49.3196C12.354 49.9439 11.43 50.2034 10.7581 50.3016C11.423 51.7396 12.7459 54.1597 14.1248 56.4464C15.4196 58.7963 16.8545 61.1672 17.7644 62.4649C18.2894 61.7985 19.0243 61.1813 19.9692 60.6201C21.3551 59.7924 22.006 59.4416 22.279 59.3013C22.321 59.2663 22.37 59.2312 22.4399 59.1891C22.7829 58.9857 23.2239 58.9296 23.6368 59.0418C24.0498 59.154 24.3997 59.4206 24.6027 59.7713L30.1182 69.3392C30.5521 70.0968 30.2932 71.0718 29.5372 71.5067C29.5372 71.5067 26.5555 73.6392 23.6928 74.537C22.7059 74.8457 21.698 75 20.6901 75ZM9.62422 36.055C9.46324 36.055 9.31626 36.0971 9.24626 36.1392C9.07128 36.2233 5.8586 37.7104 3.76581 39.6394C1.43504 41.7859 0.37115 44.8934 0.784109 48.3796C1.24606 52.2587 6.42554 60.7674 6.48154 60.8516C6.53753 60.9568 11.3391 69.7531 14.4397 72.0749C17.2255 74.1582 20.4661 74.8106 23.4828 73.8566C26.1776 73.0079 29.1243 70.9315 29.1523 70.9105C29.6072 70.6439 29.7542 70.0968 29.5162 69.6759L24.0008 60.108C23.8888 59.9186 23.6928 59.7713 23.4618 59.7082C23.2309 59.6451 22.9859 59.6731 22.7899 59.7854C22.7479 59.8064 22.7269 59.8274 22.7059 59.8485L22.6359 59.8976C22.3909 60.0238 21.761 60.3605 20.3262 61.2163C19.2833 61.8336 18.5203 62.514 18.0584 63.2435L17.7854 63.6714L17.4844 63.2646C16.5885 62.0791 14.9577 59.4136 13.5158 56.7901C11.976 54.2438 10.4921 51.5011 9.9182 50.1333L9.72222 49.6703L10.2262 49.6493C10.8281 49.6212 11.815 49.4388 13.1169 48.7093C14.2508 48.071 15.0417 47.615 15.4756 47.3485L15.5806 47.2854C15.7906 47.1661 15.9376 46.9767 16.0006 46.7452C16.0636 46.5137 16.0286 46.2753 15.9166 46.0718L10.4011 36.5039C10.2472 36.2304 9.95319 36.062 9.63822 36.062L9.62422 36.055ZM20.6971 73.569C18.7023 73.569 16.6935 72.8676 14.8667 71.4997C12.123 69.4444 7.93039 61.9949 7.11848 60.5219C6.57953 59.631 1.918 51.8378 1.49804 48.3025C1.11308 45.0477 2.09298 42.1647 4.24876 40.1726C5.9146 38.6364 8.40635 37.3527 9.40025 36.8687L9.69422 36.7284L15.3637 46.5628L15.0767 46.7452C14.6777 46.9907 13.9008 47.4397 12.7669 48.078C10.9821 49.0811 9.8692 48.9548 9.51924 48.8707L9.41425 48.8426C9.30226 48.7865 9.16927 48.8005 9.06428 48.8707C8.95929 48.9408 8.9033 49.053 8.9033 49.1863C8.93129 50.2385 11.0731 54.1386 12.8929 57.1619C14.6917 60.4307 16.9175 64.0993 17.8134 64.6535C17.9114 64.7096 18.0374 64.7166 18.1564 64.6535C18.2614 64.6044 18.3454 64.4851 18.3594 64.3589C18.3734 64.2326 18.5833 63.0962 20.6901 61.8476C22.4049 60.8305 22.9299 60.564 23.0209 60.5219L23.3149 60.3816L28.9633 70.188L28.6973 70.3704C27.9974 70.8544 25.5266 72.4818 23.2659 73.1902C22.4189 73.4568 21.558 73.5901 20.6971 73.5901V73.569ZM9.41425 37.6403C8.42734 38.1383 6.20157 39.3308 4.72472 40.6846C2.73691 42.5154 1.841 45.188 2.19097 48.2113C2.59693 51.6625 7.49644 59.7924 7.70642 60.1361C8.21737 61.062 12.5989 68.9254 15.2867 70.9315C17.7224 72.7553 20.4801 73.3095 23.0559 72.4958C25.0017 71.8855 27.1925 70.5037 28.0324 69.9495L23.0419 61.2795C22.7339 61.4478 22.132 61.7845 21.0541 62.4228C19.2483 63.4961 19.0593 64.422 19.0593 64.429C19.0173 64.7797 18.7863 65.1024 18.4643 65.2567C18.1284 65.4181 17.7504 65.404 17.4494 65.2217C16.2106 64.4571 13.4318 59.5539 12.291 57.4846C11.0801 55.4784 8.24536 50.6313 8.20337 49.1793C8.19637 48.8075 8.37135 48.4638 8.67932 48.2674C8.98029 48.071 9.34425 48.0359 9.67322 48.1762C9.8412 48.2183 10.7931 48.3726 12.4239 47.4537C13.3059 46.9627 13.9848 46.5699 14.4187 46.3103L9.42125 37.6333L9.41425 37.6403Z" fill="#1D1D1D"/>
<path d="M27.2275 72.4256C26.9825 72.4256 26.7515 72.2994 26.6185 72.0749L20.4031 61.5951C20.2002 61.2584 20.3122 60.8235 20.6481 60.6201C20.9841 60.4167 21.418 60.5289 21.621 60.8656L27.8364 71.3454C28.0394 71.6821 27.9274 72.117 27.5914 72.3204C27.4794 72.3906 27.3534 72.4186 27.2275 72.4186V72.4256Z" fill="#1D1D1D"/>
<path d="M27.2275 72.7764C26.8566 72.7764 26.5066 72.58 26.3176 72.2573L20.1022 61.7775C19.8013 61.2724 19.9692 60.6201 20.4732 60.3255C20.7182 60.1782 20.9981 60.1361 21.2781 60.2062C21.5511 60.2764 21.7821 60.4517 21.929 60.6902L28.1444 71.17C28.4384 71.6751 28.2774 72.3274 27.7735 72.622C27.6055 72.7203 27.4235 72.7694 27.2345 72.7694L27.2275 72.7764ZM21.0121 60.8726C20.9491 60.8726 20.8862 60.8866 20.8302 60.9217C20.6552 61.0199 20.5992 61.2444 20.7042 61.4127L26.9195 71.8925C27.0175 72.0609 27.2415 72.117 27.4165 72.0188C27.5845 71.9206 27.6405 71.6961 27.5425 71.5278L21.3271 61.048C21.2571 60.9357 21.1381 60.8726 21.0191 60.8726H21.0121Z" fill="#1D1D1D"/>
<path d="M13.2781 48.8987C13.0401 48.8987 12.8021 48.7725 12.6691 48.548L6.46076 38.0752C6.25778 37.7385 6.36977 37.3036 6.70574 37.1002C7.0417 36.8967 7.47566 37.009 7.67864 37.3457L13.887 47.8185C14.083 48.1552 13.978 48.5901 13.642 48.7935C13.5301 48.8636 13.4041 48.8917 13.2781 48.8917V48.8987Z" fill="#1D1D1D"/>
<path d="M13.2779 49.2494C12.907 49.2494 12.557 49.053 12.368 48.7304L6.15965 38.2576C6.01267 38.0121 5.97767 37.7315 6.04066 37.4509C6.10366 37.1703 6.28564 36.9458 6.52362 36.7985C6.76159 36.6512 7.04856 36.6091 7.32154 36.6793C7.59451 36.7494 7.83249 36.9178 7.97247 37.1633L14.1809 47.6361C14.4748 48.1411 14.3138 48.7935 13.8099 49.0881C13.6489 49.1863 13.4599 49.2354 13.2709 49.2354L13.2779 49.2494ZM7.06956 37.3527C7.00657 37.3527 6.94357 37.3667 6.88758 37.4018C6.7126 37.507 6.6566 37.7245 6.76159 37.8928L12.97 48.3656C13.068 48.5339 13.2989 48.5901 13.4599 48.4919C13.6279 48.3937 13.6839 48.1692 13.5859 47.9938L7.37753 37.521C7.32854 37.4369 7.25154 37.3808 7.15355 37.3527C7.12556 37.3457 7.09756 37.3387 7.06256 37.3387L7.06956 37.3527Z" fill="#1D1D1D"/>
</svg>
