<svg width="120" height="41" viewBox="0 0 120 41" fill="none" xmlns="http://www.w3.org/2000/svg">
<g clip-path="url(#clip0_14_45)">
<path d="M98.1816 8.68826C98.1816 8.99051 98.2255 9.30375 98.3462 9.6005C98.8782 10.9194 100.233 11.7327 101.955 11.0458C102.366 10.8809 113.758 6.28127 113.758 6.28127C113.758 6.28127 109.272 17.6788 109.102 18.1019C108.449 19.7341 109.233 21.2123 110.566 21.7069C110.862 21.8168 111.169 21.8718 111.471 21.8663C112.563 21.8608 113.522 21.2178 113.994 19.9319C114.065 19.7396 119.676 4.30292 119.797 3.93472C119.868 3.71491 120 3.19834 120 2.84113C120 2.07727 119.72 1.35737 119.177 0.813323C118.645 0.274771 117.932 0 117.181 0C116.813 0 116.517 0.0659451 116.067 0.208826C115.799 0.296753 101.335 5.68776 100.101 6.14938C98.8672 6.61099 98.1816 7.60017 98.1871 8.68826" fill="#CE0112"/>
<path d="M64.05 18.2108V17.8008H53.1477V20.5956H59.4818C57.8318 25.8299 51.9341 28.9049 51.9341 28.9049L53.5091 31.1121C53.5091 31.1121 64.05 26.7524 64.05 18.2039V18.2108Z" fill="white"/>
<path d="M60.6066 36.7704V31.3379H56.7407V37.4606C56.7407 39.3739 58.2612 40.7542 60.3475 40.7542H72.3271V37.9662H61.9566C61.0157 37.9662 60.6203 37.5904 60.5998 36.7704H60.6066Z" fill="white"/>
<path d="M63.6138 22.954V25.7488H68.216V32.4865H72.0819V17.5078H68.216V22.954H63.6138Z" fill="white"/>
<path d="M94.2 28.7359H98.0659V17.3926H94.2V20.9254H90.1704V23.6861H94.2V28.7359Z" fill="white"/>
<path d="M18.3953 31.127H3.68164V37.4615C3.68164 39.3748 5.20209 40.7551 7.28846 40.7551H19.2544V31.988C19.2544 31.5096 18.8657 31.127 18.3953 31.127ZM15.3885 37.9671H8.89755C7.95664 37.9671 7.55437 37.5981 7.54073 36.7713V33.9286H15.3885V37.9671Z" fill="white"/>
<path d="M19.5136 17.8427V17.7129H3.47045V20.5077H15.4705C15.4705 20.6922 15.4705 20.9246 15.4705 21.1501C15.4705 23.7467 15.3409 25.4551 15.2727 26.1521H0V28.9469H23.5295V26.1521H18.7159C18.9477 25.2774 19.5205 22.5714 19.5205 17.8427H19.5136Z" fill="white"/>
<path d="M38.7681 32.5342C41.9794 31.8303 44.3522 29.4182 44.3522 26.5618C44.3522 25.0243 43.6635 23.6167 42.5317 22.5302H46.6363V19.7353H38.7681V17.0977H34.909V19.7353H27.0408V22.5302H31.1453C30.0135 23.6167 29.3249 25.0175 29.3249 26.5618C29.3249 29.425 31.6976 31.8303 34.9158 32.5342V35.3632H25.084V38.158H48.6067V35.3632H38.7749V32.5342H38.7681ZM33.2931 26.473C33.2931 24.5665 34.8817 23.0085 36.8317 23.0085C38.7817 23.0085 40.3703 24.5597 40.3703 26.473C40.3703 28.3863 38.7817 29.9375 36.8317 29.9375C34.8817 29.9375 33.2931 28.3863 33.2931 26.473Z" fill="white"/>
<path d="M86.8091 28.4949H90.5523C90.3955 27.5861 89.025 20.2471 85.4591 17.7051H81.1432L77.8228 28.5837H81.7023L83.9114 20.7527C85.7728 22.9394 86.6796 27.7774 86.8023 28.4949H86.8091Z" fill="white"/>
<path d="M87.5794 38.0633C86.5976 38.0633 86.4203 37.8104 86.4203 36.9768V36.6283H98.0726V30.7516C98.0726 30.2459 97.7044 29.8496 97.1794 29.8496H82.6226V32.5419H94.3703V33.9838H82.7248V37.4619C82.7248 39.4778 84.1703 40.7556 86.3317 40.7556H98.3248V38.0633H87.5794Z" fill="white"/>
</g>
<defs>
<clipPath id="clip0_14_45">
<rect width="120" height="41" fill="white"/>
</clipPath>
</defs>
</svg>
