<svg width="54" height="54" viewBox="0 0 54 54" fill="none" xmlns="http://www.w3.org/2000/svg">
<rect width="54" height="54" fill="white"/>
<path d="M28.6846 41.749V45.4404L25.0459 49H21.4336V41.749H28.6846ZM23.2529 25.1113C25.1338 25.1113 26.7334 24.4521 28.0518 23.1338C29.3701 21.7979 30.0293 20.1895 30.0293 18.3086C30.0293 16.4453 29.3701 14.8545 28.0518 13.5361C26.7334 12.2002 25.1338 11.5322 23.2529 11.5322H17.6367V9.44922H30.0293C32.0332 9.44922 33.7383 10.1611 35.1445 11.585C36.5684 12.9912 37.2803 14.6963 37.2803 16.7002V19.917C37.2803 21.9385 36.5684 23.6611 35.1445 25.085C33.7383 26.4912 32.0332 27.1943 30.0293 27.1943H28.6846V39.1387H21.4336V27.1943V26.9307C21.4336 26.4385 21.6094 26.0166 21.9609 25.665C22.3125 25.2959 22.7432 25.1113 23.2529 25.1113Z" fill="#111111"/>
</svg>
