<svg xmlns="http://www.w3.org/2000/svg" width="256" height="256" viewBox="0 0 256 256">
  <g id="그룹_4" data-name="그룹 4" transform="translate(-192 -2393)">
    <rect id="사각형_81" data-name="사각형 81" width="256" height="256" transform="translate(192 2393)" fill="none"/>
    <path id="패스_28" data-name="패스 28" d="M44.123,18.571C101.749,5.509,112.1,81.457,70.291,92.438,10.608,108.115.558,28.445,44.123,18.571m5.583,22.378c-18.1,5.593-9.3,39.666,14.83,28.877,17.284-7.733,6.92-35.6-14.83-28.877" transform="translate(259.582 2459.688)" fill="#232175"/>
    <path id="패스_29" data-name="패스 29" d="M5.917,127.911c-9.1-14.478,24.611-38.569,33.187-48.8C47.175,69.491,62.05,41.56,68.049,36.52c14.83-12.465,25.517,2.7,19.5,20.884C83.168,70.637,37.586,125.2,25.008,129.645c-7.121,2.522-12.367,1.518-19.091-1.734" transform="translate(209.198 2517.767)" fill="#232175"/>
    <path id="패스_30" data-name="패스 30" d="M37.608,32.5C51.919,28.567,73.684,61,84.645,71.466c9.967,9.521,41.047,24.763,26.79,40.675-7.126,7.949-18.214,1.592-25.135-3.041C77,102.875,33.93,63.032,31.241,54.706,28.812,47.178,28.5,34.993,37.608,32.5" transform="translate(308.227 2518.55)" fill="#232175"/>
    <path id="패스_31" data-name="패스 31" d="M97.945,19.334c8.081-.485,22.431-4.08,25.443,6.754S116.7,40.825,108.5,43.9C96.481,48.416,51.1,54.6,41.313,49,29.152,42.044,32.742,29.1,45.045,25.358c8.375-2.552,42.149-5.378,52.9-6.024" transform="translate(323.901 2464.799)" fill="#232175"/>
    <path id="패스_32" data-name="패스 32" d="M37.481.751C63.645-7.237,55.808,50.8,51.738,65.611c-5.412,19.684-24.562,16.456-27.7-2.14C30.159,49.492,21.3,5.692,37.481.751" transform="translate(285.838 2393.17)" fill="#232175"/>
    <path id="패스_33" data-name="패스 33" d="M75.269,51.684C66.238,58.09,5.717,46.444,1.951,37.608c-5.363-12.587.715-19.052,13.527-19.263,6.436-.1,60.173,11.519,61.951,14.174,2.537,3.791,1.092,16.858-2.16,19.165" transform="translate(192.148 2464.675)" fill="#232175"/>
    <path id="패스_34" data-name="패스 34" d="M35.291,34.969c22.965-6.46,11.769,44.784,7.939,55.853-3.595,10.378-15.276,11.75-19.757,2.708-3.482-7.023,2.263-55.873,11.818-58.562" transform="translate(279.644 2527.287)" fill="#fab041"/>
    <path id="패스_35" data-name="패스 35" d="M95.275,46.582c6.925,7,1.724,19.855-10.6,17.754-4.153-.71-42.238-16-45.7-18.273-3.306-2.175-5.206-8.576-4.315-12.249L39.9,27.54c6.068-2.978,50.52,14.13,55.373,19.042" transform="translate(326.414 2499.168)" fill="#fab041"/>
    <path id="패스_36" data-name="패스 36" d="M33.1,34.532C34.923,31.4,68.438,5.381,75.5,8.986l6.362,8.066c3.33,12.489-39.784,46.131-48.144,33.912-1.9-2.772-2.346-13.464-.617-16.432" transform="translate(316.96 2426.864)" fill="#fab041"/>
    <path id="패스_37" data-name="패스 37" d="M55.554,48.821c-2.488,2.826-41.111,15.31-46.361,8.414-17.94-17.774,27.613-30.4,36.787-29.489,9.585.96,15.55,14.291,9.575,21.075" transform="translate(211.824 2501.137)" fill="#fab041"/>
    <path id="패스_38" data-name="패스 38" d="M21.049,6.016C37.5,1.937,67.034,65.42,35.057,55.679,28.1,53.558,2.845,10.532,21.049,6.016" transform="translate(248.964 2415.885)" fill="#fab041"/>
    <path id="패스_39" data-name="패스 39" d="M40.142,39.266c-8.409,8.409-37.071-13.4-29-24.782,7.082-9.981,38.976,14.806,29,24.782" transform="translate(230.057 2440.566)" fill="#fab041"/>
  </g>
</svg>
